<?xml version="1.0" encoding="UTF-8" standalone="no"?>
<!-- Created with Inkscape (http://www.inkscape.org/) -->

<svg
   xmlns:dc="http://purl.org/dc/elements/1.1/"
   xmlns:cc="http://creativecommons.org/ns#"
   xmlns:rdf="http://www.w3.org/1999/02/22-rdf-syntax-ns#"
   xmlns:svg="http://www.w3.org/2000/svg"
   xmlns="http://www.w3.org/2000/svg"
   xmlns:sodipodi="http://sodipodi.sourceforge.net/DTD/sodipodi-0.dtd"
   xmlns:inkscape="http://www.inkscape.org/namespaces/inkscape"
   width="768"
   height="768"
   viewBox="0 0 203.2 203.20001"
   version="1.1"
   id="svg8"
   inkscape:version="0.92.3 (2405546, 2018-03-11)"
   sodipodi:docname="syringe.svg"
   inkscape:export-filename="D:\Studium\Master INF\S3\GdMed\Iconset\showcase4.png"
   inkscape:export-xdpi="99.999016"
   inkscape:export-ydpi="99.999016">
  <sodipodi:namedview
     id="base"
     pagecolor="#ffffff"
     bordercolor="#666666"
     borderopacity="1.0"
     inkscape:pageopacity="1"
     inkscape:pageshadow="2"
     inkscape:zoom="0.3535534"
     inkscape:cx="771.00762"
     inkscape:cy="515.49536"
     inkscape:document-units="px"
     inkscape:current-layer="layer2"
     showgrid="true"
     inkscape:window-width="1920"
     inkscape:window-height="1017"
     inkscape:window-x="-8"
     inkscape:window-y="-8"
     inkscape:window-maximized="1"
     units="px"
     width="4096px"
     inkscape:snap-grids="true"
     inkscape:snap-intersection-paths="false"
     inkscape:snap-smooth-nodes="true"
     inkscape:object-paths="false"
     showguides="false"
     inkscape:guide-bbox="true"
     inkscape:snap-bbox="true"
     inkscape:snap-bbox-midpoints="true"
     inkscape:snap-nodes="true"
     inkscape:bbox-nodes="true"
     inkscape:lockguides="true">
    <inkscape:grid
       empspacing="4"
       spacingy="8.4666669"
       spacingx="8.4666669"
       id="grid815"
       type="xygrid" />
    <sodipodi:guide
       inkscape:locked="true"
       id="guide4657"
       orientation="0,1"
       position="33.866666,237.06668" />
    <sodipodi:guide
       inkscape:locked="true"
       id="guide4659"
       orientation="0,1"
       position="237.06665,33.866669" />
  </sodipodi:namedview>
  <defs
     id="defs2">
    <pattern
       id="pattern4841"
       patternTransform="matrix(0.26458334,0,0,0.26458334,-3.386667,22.680018)"
       height="1049.6"
       width="1049.6"
       patternUnits="userSpaceOnUse">
      <rect
         style="fill:none;fill-opacity:1;fill-rule:nonzero;stroke:#19aeff;stroke-width:25.60000229;stroke-linecap:square;stroke-linejoin:miter;stroke-miterlimit:4;stroke-dasharray:none;stroke-dashoffset:0;stroke-opacity:1"
         id="rect4520"
         width="1024"
         height="1024"
         x="12.800001"
         y="12.800001"
         ry="51.200005" />
    </pattern>
  </defs>
  <metadata
     id="metadata5">
    <rdf:RDF>
      <cc:Work
         rdf:about="">
        <dc:format>image/svg+xml</dc:format>
        <dc:type
           rdf:resource="http://purl.org/dc/dcmitype/StillImage" />
        <dc:title />
      </cc:Work>
    </rdf:RDF>
  </metadata>
  <g
     style="display:inline"
     transform="translate(0,-93.800025)"
     id="layer1"
     inkscape:groupmode="layer"
     inkscape:label="border" />
  <g
     style="display:inline"
     transform="translate(0,-67.733345)"
     inkscape:label="icons"
     id="layer2"
     inkscape:groupmode="layer">
    <path
       style="color:#000000;font-style:normal;font-variant:normal;font-weight:normal;font-stretch:normal;font-size:medium;line-height:normal;font-family:sans-serif;font-variant-ligatures:normal;font-variant-position:normal;font-variant-caps:normal;font-variant-numeric:normal;font-variant-alternates:normal;font-feature-settings:normal;text-indent:0;text-align:start;text-decoration:none;text-decoration-line:none;text-decoration-style:solid;text-decoration-color:#000000;letter-spacing:normal;word-spacing:normal;text-transform:none;writing-mode:lr-tb;direction:ltr;text-orientation:mixed;dominant-baseline:auto;baseline-shift:baseline;text-anchor:start;white-space:normal;shape-padding:0;clip-rule:nonzero;display:inline;overflow:visible;visibility:visible;opacity:1;isolation:auto;mix-blend-mode:normal;color-interpolation:sRGB;color-interpolation-filters:linearRGB;solid-color:#000000;solid-opacity:1;vector-effect:none;fill:#005c94;fill-opacity:1;fill-rule:nonzero;stroke:none;stroke-width:24;stroke-linecap:round;stroke-linejoin:round;stroke-miterlimit:4;stroke-dasharray:none;stroke-dashoffset:0;stroke-opacity:1;color-rendering:auto;image-rendering:auto;shape-rendering:auto;text-rendering:auto;enable-background:accumulate"
       d="m 105.37109,61.445312 c -11.284311,5e-6 -22.568087,4.271203 -31.109371,12.8125 -17.082569,17.082558 -17.088349,45.142018 -0.0059,62.224608 14.144236,14.14423 35.812431,16.56551 52.546871,7.28711 l 97.36329,97.36328 c -42.43064,42.42847 -84.8484,84.85231 -127.277348,127.28125 -4.686874,4.68687 -4.686867,12.28578 3e-6,16.97266 4.686865,4.68687 12.285785,4.68687 16.972655,0 l 59.39453,-59.39453 c 142.19603,142.49484 228.6912,228.68341 353.55469,353.54687 4.68658,4.68572 12.28412,4.68572 16.9707,0 l 59.39063,-59.39062 82.02539,82.02344 c 4.66721,4.7953 12.35466,4.84731 17.08634,0.11563 4.73168,-4.73168 4.67966,-12.41914 -0.11564,-17.08634 l -82.02344,-82.02539 59.39649,-59.39648 c 4.68573,-4.68658 4.68573,-12.28413 0,-16.97071 L 325.99023,173.25781 385.38867,113.85742 c 7.85241,-7.63243 2.219,-20.931713 -8.72656,-20.601561 -3.11526,0.09389 -6.07181,1.395999 -8.24414,3.63086 -42.42558,42.426631 -84.85236,84.852071 -127.2793,127.277341 l -97.36523,-97.36523 c 9.27592,-16.73297 6.85079,-38.39733 -7.29297,-52.541018 -8.54129,-8.541278 -19.82506,-12.812504 -31.10938,-12.8125 z m 0,23.84961 c 5.09245,-5e-6 10.18514,1.976157 14.14063,5.93164 7.55466,7.554657 7.89505,19.258788 1.02148,27.187498 -0.80391,0.62042 -1.52582,1.34037 -2.14843,2.14258 -7.9286,6.84496 -19.613879,6.50139 -27.158208,-1.04297 -7.910981,-7.91096 -7.907128,-20.376141 0.0039,-28.287108 3.955504,-3.955502 9.048181,-5.931635 14.140621,-5.93164 z m 203.65235,104.927738 345.0664,345.0664 c -39.84876,39.67661 -79.08831,79.08831 -118.79687,118.79688 l -28.2832,-28.28321 36.77148,-36.77343 c 7.83731,-7.63255 2.2105,-20.9142 -8.72461,-20.59375 -3.11482,0.0913 -6.072,1.39059 -8.24609,3.62304 l -36.77149,36.77344 -50.91406,-50.91406 59.39844,-59.39649 c 7.83851,-7.63037 2.2158,-20.9125 -8.71875,-20.5957 -3.11688,0.0898 -6.07643,1.38921 -8.25196,3.62305 l -59.39843,59.39844 -50.90821,-50.90821 36.76758,-36.76953 c 7.85281,-7.62959 2.22528,-20.92815 -8.71875,-20.60351 -3.11826,0.0924 -6.07801,1.39538 -8.25195,3.63281 l -36.76953,36.76758 -50.91211,-50.91211 59.40234,-59.39453 c 7.85242,-7.63243 2.21901,-20.93173 -8.72656,-20.60157 -3.11594,0.0934 -6.07328,1.39554 -8.24609,3.63086 l -59.39649,59.39844 -50.91406,-50.91406 36.76562,-36.77149 c 7.85281,-7.62959 2.22528,-20.92815 -8.71875,-20.60351 -3.11553,0.0944 -6.07212,1.39723 -8.24414,3.63281 l -36.77343,36.77148 -28.28321,-28.2832 c 39.793,-39.71909 79.06487,-79.06486 118.79688,-118.79687 z"
       transform="matrix(0.26458334,0,0,0.26458334,0,67.733345)"
       id="path4585-56-9-8"
       inkscape:connector-curvature="0"
       sodipodi:nodetypes="scccccsscccccscccccccccccsssccccscccccccccccccccccccccccccccccc" />
  </g>
</svg>
