<?xml version="1.0" encoding="UTF-8" standalone="no"?>
<!-- Created with Inkscape (http://www.inkscape.org/) -->

<svg
   xmlns:dc="http://purl.org/dc/elements/1.1/"
   xmlns:cc="http://creativecommons.org/ns#"
   xmlns:rdf="http://www.w3.org/1999/02/22-rdf-syntax-ns#"
   xmlns:svg="http://www.w3.org/2000/svg"
   xmlns="http://www.w3.org/2000/svg"
   xmlns:sodipodi="http://sodipodi.sourceforge.net/DTD/sodipodi-0.dtd"
   xmlns:inkscape="http://www.inkscape.org/namespaces/inkscape"
   width="768"
   height="768"
   viewBox="0 0 203.2 203.20001"
   version="1.1"
   id="svg8"
   inkscape:version="0.92.3 (2405546, 2018-03-11)"
   sodipodi:docname="eye.svg"
   inkscape:export-filename="D:\Studium\Master INF\S3\GdMed\Iconset\showcase4.png"
   inkscape:export-xdpi="99.999016"
   inkscape:export-ydpi="99.999016">
  <sodipodi:namedview
     id="base"
     pagecolor="#ffffff"
     bordercolor="#666666"
     borderopacity="1.0"
     inkscape:pageopacity="1"
     inkscape:pageshadow="2"
     inkscape:zoom="0.45254834"
     inkscape:cx="-179.7694"
     inkscape:cy="141.91278"
     inkscape:document-units="px"
     inkscape:current-layer="layer2"
     showgrid="true"
     inkscape:window-width="1920"
     inkscape:window-height="1017"
     inkscape:window-x="-8"
     inkscape:window-y="-8"
     inkscape:window-maximized="1"
     units="px"
     width="4096px"
     inkscape:snap-grids="true"
     inkscape:snap-intersection-paths="false"
     inkscape:snap-smooth-nodes="true"
     inkscape:object-paths="false"
     showguides="false"
     inkscape:guide-bbox="true"
     inkscape:snap-bbox="true"
     inkscape:snap-bbox-midpoints="true"
     inkscape:snap-nodes="true"
     inkscape:bbox-nodes="true"
     inkscape:lockguides="true">
    <inkscape:grid
       empspacing="4"
       spacingy="8.4666669"
       spacingx="8.4666669"
       id="grid815"
       type="xygrid" />
    <sodipodi:guide
       inkscape:locked="true"
       id="guide4657"
       orientation="0,1"
       position="33.866666,237.06668" />
    <sodipodi:guide
       inkscape:locked="true"
       id="guide4659"
       orientation="0,1"
       position="237.06665,33.866669" />
  </sodipodi:namedview>
  <defs
     id="defs2">
    <pattern
       id="pattern4841"
       patternTransform="matrix(0.26458334,0,0,0.26458334,-3.386667,22.680018)"
       height="1049.6"
       width="1049.6"
       patternUnits="userSpaceOnUse">
      <rect
         style="fill:none;fill-opacity:1;fill-rule:nonzero;stroke:#19aeff;stroke-width:25.60000229;stroke-linecap:square;stroke-linejoin:miter;stroke-miterlimit:4;stroke-dasharray:none;stroke-dashoffset:0;stroke-opacity:1"
         id="rect4520"
         width="1024"
         height="1024"
         x="12.800001"
         y="12.800001"
         ry="51.200005" />
    </pattern>
  </defs>
  <metadata
     id="metadata5">
    <rdf:RDF>
      <cc:Work
         rdf:about="">
        <dc:format>image/svg+xml</dc:format>
        <dc:type
           rdf:resource="http://purl.org/dc/dcmitype/StillImage" />
        <dc:title />
      </cc:Work>
    </rdf:RDF>
  </metadata>
  <g
     style="display:inline"
     transform="translate(0,-93.800025)"
     id="layer1"
     inkscape:groupmode="layer"
     inkscape:label="border" />
  <g
     style="display:inline"
     transform="translate(0,-67.733345)"
     inkscape:label="icons"
     id="layer2"
     inkscape:groupmode="layer">
    <path
       id="path2291"
       style="color:#000000;font-style:normal;font-variant:normal;font-weight:normal;font-stretch:normal;font-size:medium;line-height:normal;font-family:sans-serif;font-variant-ligatures:normal;font-variant-position:normal;font-variant-caps:normal;font-variant-numeric:normal;font-variant-alternates:normal;font-feature-settings:normal;text-indent:0;text-align:start;text-decoration:none;text-decoration-line:none;text-decoration-style:solid;text-decoration-color:#000000;letter-spacing:normal;word-spacing:normal;text-transform:none;writing-mode:lr-tb;direction:ltr;text-orientation:mixed;dominant-baseline:auto;baseline-shift:baseline;text-anchor:start;white-space:normal;shape-padding:0;clip-rule:nonzero;display:inline;overflow:visible;visibility:visible;opacity:1;isolation:auto;mix-blend-mode:normal;color-interpolation:sRGB;color-interpolation-filters:linearRGB;solid-color:#000000;solid-opacity:1;vector-effect:none;fill:#005c94;fill-opacity:1;fill-rule:nonzero;stroke:none;stroke-width:6.35000134;stroke-linecap:round;stroke-linejoin:round;stroke-miterlimit:4;stroke-dasharray:none;stroke-dashoffset:0;stroke-opacity:1;color-rendering:auto;image-rendering:auto;shape-rendering:auto;text-rendering:auto;enable-background:accumulate"
       d="m 143.58643,196.94476 c -0.82583,0.0115 -1.61469,0.34425 -2.19921,0.92774 l -11.97266,11.97461 c -1.23981,1.24 -1.23981,3.25023 0,4.49023 l 41.90625,41.90821 c 1.24,1.23981 3.25023,1.23981 4.49023,0 l 11.97461,-11.97461 c 1.23981,-1.24 1.23981,-3.25024 0,-4.49024 l -41.9082,-41.9082 c -0.60703,-0.60598 -1.43339,-0.94062 -2.29102,-0.92774 z m 0.0469,7.66407 37.41797,37.41797 -7.48438,7.48437 -37.41797,-37.41992 z M 39.611647,108.07142 c -27.664836,27.66483 -27.664834,72.61451 5e-6,100.27934 27.66483,27.66484 72.614498,27.66484 100.279338,0 27.66484,-27.66483 27.66483,-72.61451 0,-100.27934 -27.66484,-27.664839 -72.614508,-27.664842 -100.279343,0 z m 4.489852,4.48985 c 25.238193,-25.238194 66.061451,-25.238188 91.299641,0 25.23819,25.23819 25.23819,66.06145 0,91.29964 -25.23819,25.23819 -66.061448,25.23819 -91.299636,0 -25.23819,-25.23819 -25.238196,-66.06145 -5e-6,-91.29964 z M 88.900892,147.685 c -7.2421,0 -13.18164,5.93954 -13.18164,13.18164 0,7.2421 5.93954,13.18164 13.18164,13.18164 7.24209,0 13.179688,-5.93954 13.179688,-13.18164 0,-7.2421 -5.937598,-13.18164 -13.179688,-13.18164 z m 0,-15.00977 c -15.53139,0 -28.191408,12.66002 -28.191408,28.19141 0,15.53139 12.660018,28.18945 28.191408,28.18945 15.531388,0 28.189448,-12.65806 28.189448,-28.18945 0,-15.53139 -12.65806,-28.19141 -28.189448,-28.19141 z m 0,6.35157 c 12.099588,0 21.839838,9.74024 21.839838,21.83984 0,12.0996 -9.74025,21.83984 -21.839838,21.83984 -12.0996,0 -21.8418,-9.74024 -21.8418,-21.83984 0,-12.0996 9.7422,-21.83984 21.8418,-21.83984 z m 55.166008,18.63281 c -0.93541,-0.0304 -1.83661,0.35334 -2.46289,1.04883 -17.86523,19.28123 -35.34489,28.83397 -52.533198,29 -17.18831,0.16602 -34.735003,-9.01144 -52.853516,-28.97657 -2.838309,-3.25999 -7.672168,1.12804 -4.701172,4.26758 18.845526,20.76623 38.117898,31.24693 57.615238,31.0586 19.497338,-0.18833 38.569358,-11.00052 57.130858,-31.03321 1.89393,-1.9857 0.54734,-5.2767 -2.19532,-5.36523 z M 89.553232,127.67914 c -19.49337,-0.27202 -38.902455,10.12491 -58.029295,31.04492 -2.968253,3.12816 1.834264,7.52029 4.685547,4.28516 18.396789,-20.12152 36.071928,-29.22222 53.255858,-28.98242 17.183938,0.23979 34.528378,9.86872 52.132808,28.99023 2.86352,3.19643 7.62093,-1.18309 4.67188,-4.30078 -18.29608,-19.87276 -37.22343,-30.76509 -56.716798,-31.03711 z"
       inkscape:connector-curvature="0"
       sodipodi:nodetypes="cccccccccccccccsssssssssssssssssssssssssccsccsccsccsccs" />
  </g>
</svg>
