  0
SECTION
  2
HEADER
  9
$ACADVER
  1
AC1014
  9
$HANDSEED
  5
FFFF
  9
$MEASUREMENT
 70
     1
  0
ENDSEC
  0
SECTION
  2
TABLES
  0
TABLE
  2
VPORT
  5
8
330
0
100
AcDbSymbolTable
 70
     4
  0
VPORT
  5
2E
330
8
100
AcDbSymbolTableRecord
100
AcDbViewportTableRecord
  2
*ACTIVE
 70
     0
 10
0.0
 20
0.0
 11
1.0
 21
1.0
 12
210.0
 22
148.5
 13
0.0
 23
0.0
 14
10.0
 24
10.0
 15
10.0
 25
10.0
 16
0.0
 26
0.0
 36
1.0
 17
0.0
 27
0.0
 37
0.0
 40
341.0
 41
1.24
 42
50.0
 43
0.0
 44
0.0
 50
0.0
 51
0.0
 71
     0
 72
   100
 73
     1
 74
     3
 75
     0
 76
     0
 77
     0
 78
     0
  0
ENDTAB
  0
TABLE
  2
LTYPE
  5
5
330
0
100
AcDbSymbolTable
 70
     1
  0
LTYPE
  5
14
330
5
100
AcDbSymbolTableRecord
100
AcDbLinetypeTableRecord
  2
BYBLOCK
 70
     0
  3

 72
    65
 73
     0
 40
0.0
  0
LTYPE
  5
15
330
5
100
AcDbSymbolTableRecord
100
AcDbLinetypeTableRecord
  2
BYLAYER
 70
     0
  3

 72
    65
 73
     0
 40
0.0
  0
LTYPE
  5
16
330
5
100
AcDbSymbolTableRecord
100
AcDbLinetypeTableRecord
  2
CONTINUOUS
 70
     0
  3
Solid line
 72
    65
 73
     0
 40
0.0
  0
ENDTAB
  0
TABLE
  2
LAYER
  5
2
100
AcDbSymbolTable
 70
3
  0
LAYER
  5
50
100
AcDbSymbolTableRecord
100
AcDbLayerTableRecord
  2
0
 70
0
  6
CONTINUOUS
  0
LAYER
  5
51
100
AcDbSymbolTableRecord
100
AcDbLayerTableRecord
  2
border
 70
0
  6
CONTINUOUS
  0
LAYER
  5
52
100
AcDbSymbolTableRecord
100
AcDbLayerTableRecord
  2
icons
 70
0
  6
CONTINUOUS
  0
ENDTAB
  0
TABLE
  2
STYLE
  5
3
330
0
100
AcDbSymbolTable
 70
     1
  0
STYLE
  5
11
330
3
100
AcDbSymbolTableRecord
100
AcDbTextStyleTableRecord
  2
STANDARD
 70
     0
 40
0.0
 41
1.0
 50
0.0
 71
     0
 42
2.5
  3
txt
  4

  0
ENDTAB
  0
TABLE
  2
VIEW
  5
6
330
0
100
AcDbSymbolTable
 70
     0
  0
ENDTAB
  0
TABLE
  2
UCS
  5
7
330
0
100
AcDbSymbolTable
 70
     0
  0
ENDTAB
  0
TABLE
  2
APPID
  5
9
330
0
100
AcDbSymbolTable
 70
     2
  0
APPID
  5
12
330
9
100
AcDbSymbolTableRecord
100
AcDbRegAppTableRecord
  2
ACAD
 70
     0
  0
ENDTAB
  0
TABLE
  2
DIMSTYLE
  5
A
330
0
100
AcDbSymbolTable
 70
     1
  0
DIMSTYLE
105
27
330
A
100
AcDbSymbolTableRecord
100
AcDbDimStyleTableRecord
  2
ISO-25
 70
     0
  3

  4

  5

  6

  7

 40
1.0
 41
2.5
 42
0.625
 43
3.75
 44
1.25
 45
0.0
 46
0.0
 47
0.0
 48
0.0
140
2.5
141
2.5
142
0.0
143
0.03937007874016
144
1.0
145
0.0
146
1.0
147
0.625
 71
     0
 72
     0
 73
     0
 74
     0
 75
     0
 76
     0
 77
     1
 78
     8
170
     0
171
     3
172
     1
173
     0
174
     0
175
     0
176
     0
177
     0
178
     0
270
     2
271
     2
272
     2
273
     2
274
     3
340
11
275
     0
280
     0
281
     0
282
     0
283
     0
284
     8
285
     0
286
     0
287
     3
288
     0
  0
ENDTAB
  0
TABLE
  2
BLOCK_RECORD
  5
1
330
0
100
AcDbSymbolTable
 70
     1
  0
BLOCK_RECORD
  5
1F
330
1
100
AcDbSymbolTableRecord
100
AcDbBlockTableRecord
  2
*MODEL_SPACE
  0
BLOCK_RECORD
  5
1B
330
1
100
AcDbSymbolTableRecord
100
AcDbBlockTableRecord
  2
*PAPER_SPACE
  0
ENDTAB
  0
ENDSEC
  0
SECTION
  2
BLOCKS
  0
BLOCK
  5
20
330
1F
100
AcDbEntity
  8
0
100
AcDbBlockBegin
  2
*MODEL_SPACE
 70
     0
 10
0.0
 20
0.0
 30
0.0
  3
*MODEL_SPACE
  1

  0
ENDBLK
  5
21
330
1F
100
AcDbEntity
  8
0
100
AcDbBlockEnd
  0
BLOCK
  5
1C
330
1B
100
AcDbEntity
 67
     1
  8
0
100
AcDbBlockBegin
  2
*PAPER_SPACE
  1

  0
ENDBLK
  5
1D
330
1B
100
AcDbEntity
 67
     1
  8
0
100
AcDbBlockEnd
  0
ENDSEC
  0
SECTION
  2
ENTITIES
  0
SPLINE
  5
100
100
AcDbEntity
  8
icons
 62
7
100
AcDbSpline
 70
8
 71
3
 72
8
 73
4
 74
0
 40
0
 40
0
 40
0
 40
0
 40
1
 40
1
 40
1
 40
1
 10
-9.779320
 20
22.330549
 30
0.0
 10
-10.558121
 20
22.348276
 30
0.0
 10
-11.348306
 20
22.317320
 30
0.0
 10
-12.138411
 20
22.238289
 30
0.0
  0
SPLINE
  5
101
100
AcDbEntity
  8
icons
 62
7
100
AcDbSpline
 70
8
 71
3
 72
8
 73
4
 74
0
 40
0
 40
0
 40
0
 40
0
 40
1
 40
1
 40
1
 40
1
 10
-12.138411
 20
22.238289
 30
0.0
 10
-15.298825
 20
21.922244
 30
0.0
 10
-18.474907
 20
20.824461
 30
0.0
 10
-20.909949
 20
18.795266
 30
0.0
  0
SPLINE
  5
102
100
AcDbEntity
  8
icons
 62
7
100
AcDbSpline
 70
8
 71
3
 72
8
 73
4
 74
0
 40
0
 40
0
 40
0
 40
0
 40
1
 40
1
 40
1
 40
1
 10
-20.909949
 20
18.795266
 30
0.0
 10
-23.344993
 20
16.766071
 30
0.0
 10
-24.999999
 20
13.759108
 30
0.0
 10
-24.999999
 20
9.893651
 30
0.0
  0
SPLINE
  5
103
100
AcDbEntity
  8
icons
 62
7
100
AcDbSpline
 70
8
 71
3
 72
8
 73
4
 74
0
 40
0
 40
0
 40
0
 40
0
 40
1
 40
1
 40
1
 40
1
 10
-24.999999
 20
9.893651
 30
0.0
 10
-24.999999
 20
2.162738
 30
0.0
 10
-18.775032
 20
-5.741557
 30
0.0
 10
-12.687048
 20
-11.829540
 30
0.0
  0
SPLINE
  5
104
100
AcDbEntity
  8
icons
 62
7
100
AcDbSpline
 70
8
 71
3
 72
8
 73
4
 74
0
 40
0
 40
0
 40
0
 40
0
 40
1
 40
1
 40
1
 40
1
 10
-12.687048
 20
-11.829540
 30
0.0
 10
-6.599063
 20
-17.917497
 30
0.0
 10
-0.518621
 20
-22.171944
 30
0.0
 10
-0.518621
 20
-22.171944
 30
0.0
  0
SPLINE
  5
105
100
AcDbEntity
  8
icons
 62
7
100
AcDbSpline
 70
8
 71
3
 72
8
 73
4
 74
0
 40
0
 40
0
 40
0
 40
0
 40
1
 40
1
 40
1
 40
1
 10
-0.518621
 20
-22.171944
 30
0.0
 10
-0.207412
 20
-22.389855
 30
0.0
 10
0.206858
 20
-22.389855
 30
0.0
 10
0.518067
 20
-22.171944
 30
0.0
  0
SPLINE
  5
106
100
AcDbEntity
  8
icons
 62
7
100
AcDbSpline
 70
8
 71
3
 72
8
 73
4
 74
0
 40
0
 40
0
 40
0
 40
0
 40
1
 40
1
 40
1
 40
1
 10
0.518067
 20
-22.171944
 30
0.0
 10
0.518067
 20
-22.171944
 30
0.0
 10
6.599064
 20
-17.917497
 30
0.0
 10
12.687048
 20
-11.829540
 30
0.0
  0
SPLINE
  5
107
100
AcDbEntity
  8
icons
 62
7
100
AcDbSpline
 70
8
 71
3
 72
8
 73
4
 74
0
 40
0
 40
0
 40
0
 40
0
 40
1
 40
1
 40
1
 40
1
 10
12.687048
 20
-11.829540
 30
0.0
 10
18.775032
 20
-5.741557
 30
0.0
 10
24.999999
 20
2.162738
 30
0.0
 10
24.999999
 20
9.893651
 30
0.0
  0
SPLINE
  5
108
100
AcDbEntity
  8
icons
 62
7
100
AcDbSpline
 70
8
 71
3
 72
8
 73
4
 74
0
 40
0
 40
0
 40
0
 40
0
 40
1
 40
1
 40
1
 40
1
 10
24.999999
 20
9.893651
 30
0.0
 10
24.999999
 20
13.759108
 30
0.0
 10
23.344437
 20
16.766071
 30
0.0
 10
20.909392
 20
18.795266
 30
0.0
  0
SPLINE
  5
109
100
AcDbEntity
  8
icons
 62
7
100
AcDbSpline
 70
8
 71
3
 72
8
 73
4
 74
0
 40
0
 40
0
 40
0
 40
0
 40
1
 40
1
 40
1
 40
1
 10
20.909392
 20
18.795266
 30
0.0
 10
18.474350
 20
20.824461
 30
0.0
 10
15.298271
 20
21.922244
 30
0.0
 10
12.137853
 20
22.238289
 30
0.0
  0
SPLINE
  5
10a
100
AcDbEntity
  8
icons
 62
7
100
AcDbSpline
 70
8
 71
3
 72
8
 73
4
 74
0
 40
0
 40
0
 40
0
 40
0
 40
1
 40
1
 40
1
 40
1
 10
12.137853
 20
22.238289
 30
0.0
 10
8.977439
 20
22.554334
 30
0.0
 10
5.820946
 20
22.097610
 30
0.0
 10
3.360757
 20
20.867536
 30
0.0
  0
SPLINE
  5
10b
100
AcDbEntity
  8
icons
 62
7
100
AcDbSpline
 70
8
 71
3
 72
8
 73
4
 74
0
 40
0
 40
0
 40
0
 40
0
 40
1
 40
1
 40
1
 40
1
 10
3.360757
 20
20.867536
 30
0.0
 10
1.945721
 20
20.160013
 30
0.0
 10
0.762566
 20
19.143114
 30
0.0
 10
-0.000001
 20
17.884200
 30
0.0
  0
SPLINE
  5
10c
100
AcDbEntity
  8
icons
 62
7
100
AcDbSpline
 70
8
 71
3
 72
8
 73
4
 74
0
 40
0
 40
0
 40
0
 40
0
 40
1
 40
1
 40
1
 40
1
 10
-0.000001
 20
17.884200
 30
0.0
 10
-0.762562
 20
19.143167
 30
0.0
 10
-1.946239
 20
20.159987
 30
0.0
 10
-3.361311
 20
20.867536
 30
0.0
  0
SPLINE
  5
10d
100
AcDbEntity
  8
icons
 62
7
100
AcDbSpline
 70
8
 71
3
 72
8
 73
4
 74
0
 40
0
 40
0
 40
0
 40
0
 40
1
 40
1
 40
1
 40
1
 10
-3.361311
 20
20.867536
 30
0.0
 10
-5.206455
 20
21.790085
 30
0.0
 10
-7.442924
 20
22.277712
 30
0.0
 10
-9.779320
 20
22.330549
 30
0.0
  0
SPLINE
  5
10e
100
AcDbEntity
  8
icons
 62
7
100
AcDbSpline
 70
8
 71
3
 72
8
 73
4
 74
0
 40
0
 40
0
 40
0
 40
0
 40
1
 40
1
 40
1
 40
1
 10
-9.822679
 20
20.520111
 30
0.0
 10
-7.711606
 20
20.467062
 30
0.0
 10
-5.712948
 20
20.022774
 30
0.0
 10
-4.169539
 20
19.251064
 30
0.0
  0
SPLINE
  5
10f
100
AcDbEntity
  8
icons
 62
7
100
AcDbSpline
 70
8
 71
3
 72
8
 73
4
 74
0
 40
0
 40
0
 40
0
 40
0
 40
1
 40
1
 40
1
 40
1
 10
-4.169539
 20
19.251064
 30
0.0
 10
-2.111661
 20
18.222126
 30
0.0
 10
-0.903836
 20
16.746121
 30
0.0
 10
-0.903836
 20
14.713010
 30
0.0
  0
SPLINE
  5
110
100
AcDbEntity
  8
icons
 62
7
100
AcDbSpline
 70
8
 71
3
 72
8
 73
4
 74
0
 40
0
 40
0
 40
0
 40
0
 40
1
 40
1
 40
1
 40
1
 10
0.903279
 20
14.713010
 30
0.0
 10
0.903279
 20
16.746121
 30
0.0
 10
2.111104
 20
18.222126
 30
0.0
 10
4.168982
 20
19.251064
 30
0.0
  0
SPLINE
  5
111
100
AcDbEntity
  8
icons
 62
7
100
AcDbSpline
 70
8
 71
3
 72
8
 73
4
 74
0
 40
0
 40
0
 40
0
 40
0
 40
1
 40
1
 40
1
 40
1
 10
4.168982
 20
19.251064
 30
0.0
 10
6.226861
 20
20.280002
 30
0.0
 10
9.094635
 20
20.726433
 30
0.0
 10
11.958309
 20
20.440075
 30
0.0
  0
SPLINE
  5
112
100
AcDbEntity
  8
icons
 62
7
100
AcDbSpline
 70
8
 71
3
 72
8
 73
4
 74
0
 40
0
 40
0
 40
0
 40
0
 40
1
 40
1
 40
1
 40
1
 10
11.958309
 20
20.440075
 30
0.0
 10
14.821983
 20
20.153690
 30
0.0
 10
17.669616
 20
19.143114
 30
0.0
 10
19.752639
 20
17.407262
 30
0.0
  0
SPLINE
  5
113
100
AcDbEntity
  8
icons
 62
7
100
AcDbSpline
 70
8
 71
3
 72
8
 73
4
 74
0
 40
0
 40
0
 40
0
 40
0
 40
1
 40
1
 40
1
 40
1
 10
19.752639
 20
17.407262
 30
0.0
 10
21.835665
 20
15.671410
 30
0.0
 10
23.192329
 20
13.257114
 30
0.0
 10
23.192329
 20
9.893651
 30
0.0
  0
SPLINE
  5
114
100
AcDbEntity
  8
icons
 62
7
100
AcDbSpline
 70
8
 71
3
 72
8
 73
4
 74
0
 40
0
 40
0
 40
0
 40
0
 40
1
 40
1
 40
1
 40
1
 10
23.192329
 20
9.893651
 30
0.0
 10
23.192329
 20
3.166752
 30
0.0
 10
17.369309
 20
-4.591414
 30
0.0
 10
11.409117
 20
-10.551603
 30
0.0
  0
SPLINE
  5
115
100
AcDbEntity
  8
icons
 62
7
100
AcDbSpline
 70
8
 71
3
 72
8
 73
4
 74
0
 40
0
 40
0
 40
0
 40
0
 40
1
 40
1
 40
1
 40
1
 10
11.409117
 20
-10.551603
 30
0.0
 10
5.863059
 20
-16.097640
 30
0.0
 10
0.744240
 20
-19.767887
 30
0.0
 10
-0.000556
 20
-20.297556
 30
0.0
  0
SPLINE
  5
116
100
AcDbEntity
  8
icons
 62
7
100
AcDbSpline
 70
8
 71
3
 72
8
 73
4
 74
0
 40
0
 40
0
 40
0
 40
0
 40
1
 40
1
 40
1
 40
1
 10
-0.000556
 20
-20.297556
 30
0.0
 10
-0.745799
 20
-19.767570
 30
0.0
 10
-5.863898
 20
-16.097375
 30
0.0
 10
-11.409672
 20
-10.551603
 30
0.0
  0
SPLINE
  5
117
100
AcDbEntity
  8
icons
 62
7
100
AcDbSpline
 70
8
 71
3
 72
8
 73
4
 74
0
 40
0
 40
0
 40
0
 40
0
 40
1
 40
1
 40
1
 40
1
 10
-11.409672
 20
-10.551603
 30
0.0
 10
-17.369867
 20
-4.591414
 30
0.0
 10
-23.192884
 20
3.166752
 30
0.0
 10
-23.192884
 20
9.893651
 30
0.0
  0
SPLINE
  5
118
100
AcDbEntity
  8
icons
 62
7
100
AcDbSpline
 70
8
 71
3
 72
8
 73
4
 74
0
 40
0
 40
0
 40
0
 40
0
 40
1
 40
1
 40
1
 40
1
 10
-23.192884
 20
9.893651
 30
0.0
 10
-23.192884
 20
13.257114
 30
0.0
 10
-21.836220
 20
15.671410
 30
0.0
 10
-19.753197
 20
17.407262
 30
0.0
  0
SPLINE
  5
119
100
AcDbEntity
  8
icons
 62
7
100
AcDbSpline
 70
8
 71
3
 72
8
 73
4
 74
0
 40
0
 40
0
 40
0
 40
0
 40
1
 40
1
 40
1
 40
1
 10
-19.753197
 20
17.407262
 30
0.0
 10
-17.670171
 20
19.143114
 30
0.0
 10
-14.821982
 20
20.153690
 30
0.0
 10
-11.958309
 20
20.440075
 30
0.0
  0
SPLINE
  5
11a
100
AcDbEntity
  8
icons
 62
7
100
AcDbSpline
 70
8
 71
3
 72
8
 73
4
 74
0
 40
0
 40
0
 40
0
 40
0
 40
1
 40
1
 40
1
 40
1
 10
-11.958309
 20
20.440075
 30
0.0
 10
-11.242391
 20
20.511671
 30
0.0
 10
-10.526371
 20
20.537785
 30
0.0
 10
-9.822679
 20
20.520111
 30
0.0
  0
SPLINE
  5
11b
100
AcDbEntity
  8
icons
 62
7
100
AcDbSpline
 70
8
 71
3
 72
8
 73
4
 74
0
 40
0
 40
0
 40
0
 40
0
 40
1
 40
1
 40
1
 40
1
 10
-12.022791
 20
13.206049
 30
0.0
 10
-12.446682
 20
13.217955
 30
0.0
 10
-12.821899
 20
12.933687
 30
0.0
 10
-12.924958
 20
12.522339
 30
0.0
  0
SPLINE
  5
11c
100
AcDbEntity
  8
icons
 62
7
100
AcDbSpline
 70
8
 71
3
 72
8
 73
4
 74
0
 40
0
 40
0
 40
0
 40
0
 40
1
 40
1
 40
1
 40
1
 10
-19.277375
 20
3.568469
 30
0.0
 10
-19.600285
 20
3.568469
 30
0.0
 10
-19.898666
 20
3.396199
 30
0.0
 10
-20.060121
 20
3.116560
 30
0.0
  0
SPLINE
  5
11d
100
AcDbEntity
  8
icons
 62
7
100
AcDbSpline
 70
8
 71
3
 72
8
 73
4
 74
0
 40
0
 40
0
 40
0
 40
0
 40
1
 40
1
 40
1
 40
1
 10
-20.060121
 20
3.116560
 30
0.0
 10
-20.221575
 20
2.836896
 30
0.0
 10
-20.221575
 20
2.492355
 30
0.0
 10
-20.060121
 20
2.212717
 30
0.0
  0
SPLINE
  5
11e
100
AcDbEntity
  8
icons
 62
7
100
AcDbSpline
 70
8
 71
3
 72
8
 73
4
 74
0
 40
0
 40
0
 40
0
 40
0
 40
1
 40
1
 40
1
 40
1
 10
-20.060121
 20
2.212717
 30
0.0
 10
-19.898666
 20
1.933079
 30
0.0
 10
-19.600285
 20
1.760809
 30
0.0
 10
-19.277375
 20
1.760809
 30
0.0
  0
LWPOLYLINE
  5
11f
100
AcDbEntity
  8
icons
 62
7
100
AcDbPolyline
 90
2
 70
0
 10
-0.903836
 20
14.713010
 30
0.0
 10
0.903279
 20
14.713010
 30
0.0
  0
SPLINE
  5
120
100
AcDbEntity
  8
icons
 62
7
100
AcDbSpline
 70
8
 71
3
 72
8
 73
4
 74
0
 40
0
 40
0
 40
0
 40
0
 40
1
 40
1
 40
1
 40
1
 10
-14.458032
 20
1.760809
 30
0.0
 10
-14.043310
 20
1.760888
 30
0.0
 10
-13.681880
 20
2.043252
 30
0.0
 10
-13.581434
 20
2.445630
 30
0.0
  0
LWPOLYLINE
  5
121
100
AcDbEntity
  8
icons
 62
7
100
AcDbPolyline
 90
3
 70
0
 10
-12.924958
 20
12.522339
 30
0.0
 10
-15.163423
 20
3.568469
 30
0.0
 10
-19.277375
 20
3.568469
 30
0.0
  0
SPLINE
  5
122
100
AcDbEntity
  8
icons
 62
7
100
AcDbSpline
 70
8
 71
3
 72
8
 73
4
 74
0
 40
0
 40
0
 40
0
 40
0
 40
1
 40
1
 40
1
 40
1
 10
-10.533073
 20
-4.692220
 30
0.0
 10
-10.470398
 20
-5.127592
 30
0.0
 10
-10.103371
 20
-5.454590
 30
0.0
 10
-9.663691
 20
-5.466814
 30
0.0
  0
SPLINE
  5
123
100
AcDbEntity
  8
icons
 62
7
100
AcDbSpline
 70
8
 71
3
 72
8
 73
4
 74
0
 40
0
 40
0
 40
0
 40
0
 40
1
 40
1
 40
1
 40
1
 10
-9.663691
 20
-5.466814
 30
0.0
 10
-9.224010
 20
-5.478985
 30
0.0
 10
-8.839392
 20
-5.172915
 30
0.0
 10
-8.752639
 20
-4.741697
 30
0.0
  0
LWPOLYLINE
  5
124
100
AcDbEntity
  8
icons
 62
7
100
AcDbPolyline
 90
2
 70
0
 10
-19.277375
 20
1.760809
 30
0.0
 10
-14.458032
 20
1.760809
 30
0.0
  0
LWPOLYLINE
  5
125
100
AcDbEntity
  8
icons
 62
7
100
AcDbPolyline
 90
3
 70
0
 10
-13.581434
 20
2.445630
 30
0.0
 10
-12.290161
 20
7.609053
 30
0.0
 10
-10.533073
 20
-4.692220
 30
0.0
  0
SPLINE
  5
126
100
AcDbEntity
  8
icons
 62
7
100
AcDbSpline
 70
8
 71
3
 72
8
 73
4
 74
0
 40
0
 40
0
 40
0
 40
0
 40
1
 40
1
 40
1
 40
1
 10
-5.627570
 20
2.260528
 30
0.0
 10
-5.474548
 20
1.954325
 30
0.0
 10
-5.161653
 20
1.760862
 30
0.0
 10
-4.819344
 20
1.760809
 30
0.0
  0
LWPOLYLINE
  5
127
100
AcDbEntity
  8
icons
 62
7
100
AcDbPolyline
 90
2
 70
0
 10
-6.859366
 20
4.724116
 30
0.0
 10
-5.627570
 20
2.260528
 30
0.0
  0
SPLINE
  5
128
100
AcDbEntity
  8
icons
 62
7
100
AcDbSpline
 70
8
 71
3
 72
8
 73
4
 74
0
 40
0
 40
0
 40
0
 40
0
 40
1
 40
1
 40
1
 40
1
 10
4.819345
 20
1.760809
 30
0.0
 10
5.208310
 20
1.760915
 30
0.0
 10
5.553570
 20
2.009888
 30
0.0
 10
5.676488
 20
2.378929
 30
0.0
  0
LWPOLYLINE
  5
129
100
AcDbEntity
  8
icons
 62
7
100
AcDbPolyline
 90
2
 70
0
 10
-4.819344
 20
1.760809
 30
0.0
 10
4.819345
 20
1.760809
 30
0.0
  0
SPLINE
  5
12a
100
AcDbEntity
  8
icons
 62
7
100
AcDbSpline
 70
8
 71
3
 72
8
 73
4
 74
0
 40
0
 40
0
 40
0
 40
0
 40
1
 40
1
 40
1
 40
1
 10
8.752085
 20
-2.332031
 30
0.0
 10
8.832302
 20
-2.734065
 30
0.0
 10
9.173088
 20
-3.031721
 30
0.0
 10
9.582252
 20
-3.057148
 30
0.0
  0
SPLINE
  5
12b
100
AcDbEntity
  8
icons
 62
7
100
AcDbSpline
 70
8
 71
3
 72
8
 73
4
 74
0
 40
0
 40
0
 40
0
 40
0
 40
1
 40
1
 40
1
 40
1
 10
9.582252
 20
-3.057148
 30
0.0
 10
9.991415
 20
-3.082548
 30
0.0
 10
10.366442
 20
-2.829421
 30
0.0
 10
10.495831
 20
-2.440430
 30
0.0
  0
LWPOLYLINE
  5
12c
100
AcDbEntity
  8
icons
 62
7
100
AcDbPolyline
 90
2
 70
0
 10
-8.752639
 20
-4.741697
 30
0.0
 10
-6.859366
 20
4.724116
 30
0.0
  0
SPLINE
  5
12d
100
AcDbEntity
  8
icons
 62
7
100
AcDbSpline
 70
8
 71
3
 72
8
 73
4
 74
0
 40
0
 40
0
 40
0
 40
0
 40
1
 40
1
 40
1
 40
1
 10
13.818787
 20
2.025948
 30
0.0
 10
13.988109
 20
1.856376
 30
0.0
 10
14.217846
 20
1.761021
 30
0.0
 10
14.457475
 20
1.760809
 30
0.0
  0
LWPOLYLINE
  5
12e
100
AcDbEntity
  8
icons
 62
7
100
AcDbPolyline
 90
3
 70
0
 10
5.676488
 20
2.378929
 30
0.0
 10
7.010004
 20
6.378926
 30
0.0
 10
8.752085
 20
-2.332031
 30
0.0
  0
SPLINE
  5
12f
100
AcDbEntity
  8
icons
 62
7
100
AcDbSpline
 70
8
 71
3
 72
8
 73
4
 74
0
 40
0
 40
0
 40
0
 40
0
 40
1
 40
1
 40
1
 40
1
 10
19.276821
 20
1.760809
 30
0.0
 10
19.599731
 20
1.760809
 30
0.0
 10
19.898111
 20
1.933079
 30
0.0
 10
20.059566
 20
2.212717
 30
0.0
  0
SPLINE
  5
130
100
AcDbEntity
  8
icons
 62
7
100
AcDbSpline
 70
8
 71
3
 72
8
 73
4
 74
0
 40
0
 40
0
 40
0
 40
0
 40
1
 40
1
 40
1
 40
1
 10
20.059566
 20
2.212717
 30
0.0
 10
20.221021
 20
2.492355
 30
0.0
 10
20.221021
 20
2.836896
 30
0.0
 10
20.059566
 20
3.116560
 30
0.0
  0
SPLINE
  5
131
100
AcDbEntity
  8
icons
 62
7
100
AcDbSpline
 70
8
 71
3
 72
8
 73
4
 74
0
 40
0
 40
0
 40
0
 40
0
 40
1
 40
1
 40
1
 40
1
 10
20.059566
 20
3.116560
 30
0.0
 10
19.898111
 20
3.396199
 30
0.0
 10
19.599731
 20
3.568469
 30
0.0
 10
19.276821
 20
3.568469
 30
0.0
  0
LWPOLYLINE
  5
132
100
AcDbEntity
  8
icons
 62
7
100
AcDbPolyline
 90
3
 70
0
 10
10.495831
 20
-2.440430
 30
0.0
 10
12.443024
 20
3.401146
 30
0.0
 10
13.818787
 20
2.025948
 30
0.0
  0
SPLINE
  5
133
100
AcDbEntity
  8
icons
 62
7
100
AcDbSpline
 70
8
 71
3
 72
8
 73
4
 74
0
 40
0
 40
0
 40
0
 40
0
 40
1
 40
1
 40
1
 40
1
 10
12.687048
 20
5.712996
 30
0.0
 10
12.465619
 20
5.934505
 30
0.0
 10
12.145291
 20
6.025548
 30
0.0
 10
11.840460
 20
5.953635
 30
0.0
  0
SPLINE
  5
134
100
AcDbEntity
  8
icons
 62
7
100
AcDbSpline
 70
8
 71
3
 72
8
 73
4
 74
0
 40
0
 40
0
 40
0
 40
0
 40
1
 40
1
 40
1
 40
1
 10
11.840460
 20
5.953635
 30
0.0
 10
11.535629
 20
5.881747
 30
0.0
 10
11.289762
 20
5.657116
 30
0.0
 10
11.190662
 20
5.360015
 30
0.0
  0
LWPOLYLINE
  5
135
100
AcDbEntity
  8
icons
 62
7
100
AcDbPolyline
 90
2
 70
0
 10
14.457475
 20
1.760809
 30
0.0
 10
19.276821
 20
1.760809
 30
0.0
  0
SPLINE
  5
136
100
AcDbEntity
  8
icons
 62
7
100
AcDbSpline
 70
8
 71
3
 72
8
 73
4
 74
0
 40
0
 40
0
 40
0
 40
0
 40
1
 40
1
 40
1
 40
1
 10
8.115065
 20
10.070975
 30
0.0
 10
8.034849
 20
10.473009
 30
0.0
 10
7.694062
 20
10.770665
 30
0.0
 10
7.284897
 20
10.796118
 30
0.0
  0
SPLINE
  5
137
100
AcDbEntity
  8
icons
 62
7
100
AcDbSpline
 70
8
 71
3
 72
8
 73
4
 74
0
 40
0
 40
0
 40
0
 40
0
 40
1
 40
1
 40
1
 40
1
 10
7.284897
 20
10.796118
 30
0.0
 10
6.875732
 20
10.821518
 30
0.0
 10
6.500703
 20
10.568365
 30
0.0
 10
6.371316
 20
10.179374
 30
0.0
  0
LWPOLYLINE
  5
138
100
AcDbEntity
  8
icons
 62
7
100
AcDbPolyline
 90
3
 70
0
 10
19.276821
 20
3.568469
 30
0.0
 10
14.832129
 20
3.568469
 30
0.0
 10
12.687048
 20
5.712996
 30
0.0
  0
LWPOLYLINE
  5
139
100
AcDbEntity
  8
icons
 62
7
100
AcDbPolyline
 90
3
 70
0
 10
11.190662
 20
5.360015
 30
0.0
 10
9.857143
 20
1.358907
 30
0.0
 10
8.115065
 20
10.070975
 30
0.0
  0
SPLINE
  5
13a
100
AcDbEntity
  8
icons
 62
7
100
AcDbSpline
 70
8
 71
3
 72
8
 73
4
 74
0
 40
0
 40
0
 40
0
 40
0
 40
1
 40
1
 40
1
 40
1
 10
-6.420788
 20
7.888083
 30
0.0
 10
-6.593486
 20
8.233258
 30
0.0
 10
-6.966331
 20
8.430664
 30
0.0
 10
-7.348877
 20
8.379440
 30
0.0
  0
SPLINE
  5
13b
100
AcDbEntity
  8
icons
 62
7
100
AcDbSpline
 70
8
 71
3
 72
8
 73
4
 74
0
 40
0
 40
0
 40
0
 40
0
 40
1
 40
1
 40
1
 40
1
 10
-7.348877
 20
8.379440
 30
0.0
 10
-7.731424
 20
8.328244
 30
0.0
 10
-8.039227
 20
8.039742
 30
0.0
 10
-8.115064
 20
7.661308
 30
0.0
  0
LWPOLYLINE
  5
13c
100
AcDbEntity
  8
icons
 62
7
100
AcDbPolyline
 90
2
 70
0
 10
-4.261255
 20
3.568469
 30
0.0
 10
-6.420788
 20
7.888083
 30
0.0
  0
SPLINE
  5
13d
100
AcDbEntity
  8
icons
 62
7
100
AcDbSpline
 70
8
 71
3
 72
8
 73
4
 74
0
 40
0
 40
0
 40
0
 40
0
 40
1
 40
1
 40
1
 40
1
 10
-11.153973
 20
12.431164
 30
0.0
 10
-11.216482
 20
12.866456
 30
0.0
 10
-11.583231
 20
13.193534
 30
0.0
 10
-12.022791
 20
13.206049
 30
0.0
  0
LWPOLYLINE
  5
13e
100
AcDbEntity
  8
icons
 62
7
100
AcDbPolyline
 90
3
 70
0
 10
6.371316
 20
10.179374
 30
0.0
 10
4.167872
 20
3.568469
 30
0.0
 10
-4.261255
 20
3.568469
 30
0.0
  0
LWPOLYLINE
  5
13f
100
AcDbEntity
  8
icons
 62
7
100
AcDbPolyline
 90
3
 70
0
 10
-8.115064
 20
7.661308
 30
0.0
 10
-9.490272
 20
0.785264
 30
0.0
 10
-11.153973
 20
12.431164
 30
0.0
  0
ENDSEC
  0
SECTION
  2
OBJECTS
  0
DICTIONARY
  5
C
330
0
100
AcDbDictionary
  3
ACAD_GROUP
350
D
  3
ACAD_MLINESTYLE
350
17
  0
DICTIONARY
  5
D
330
C
100
AcDbDictionary
  0
DICTIONARY
  5
1A
330
C
100
AcDbDictionary
  0
DICTIONARY
  5
17
330
C
100
AcDbDictionary
  3
STANDARD
350
18
  0
DICTIONARY
  5
19
330
C
100
AcDbDictionary
  0
ENDSEC
  0
EOF
